# xmcd CD database file
#
# Track frame offsets:
#	150
#	18720
#	39995
#
# Disc length: 776 seconds
#
# Revision: 4
# Processed by: cddbd v1.5.1PL0 Copyright (c) Steve Scherf et al.
# Submitted via: CDex 1.40Beta9
#
DISCID=1c030603
DTITLE=Aya Matuura - Zutto sukide iidesuka
DYEAR=2005
DGENRE=JPop
TTITLE0=Zutto sukide iidesuka
TTITLE1=Yume
TTITLE2=Zutto sukide iidesuka(Instrumental)
EXTD=YEAR: 2005
EXTT0=
EXTT1=
EXTT2=
PLAYORDER=
